<?xml version="1.0" standalone="no"?><?xml-stylesheet type="text/css" href="https://www.processon.com/themes/default/mind/icons/icons.css" ?><!DOCTYPE svg PUBLIC "-//W3C//DTD SVG 1.1//EN" "http://www.w3.org/Graphics/SVG/1.1/DTD/svg11.dtd">
<svg xmlns="http://www.w3.org/2000/svg" version="1.1" xlink="http://www.w3.org/1999/xlink" id="mind-svg-con" width="900.21875px" height="864px" style="position: absolute; left: 0px; top: 0px; width: 900.219px; height: 864px; background: rgb(247, 247, 247); z-index: 999;"><defs></defs><g id="svgbackgroundid"><defs></defs><rect x="0" y="0" width="900.21875" height="864" fill="#F7F7F7"></rect></g><g transform="translate(-9860, -9491)" id="sdjakdjak3"><defs></defs><g class="svg-topic-con" transform="translate(0.5,0.5)"><path part="right" sub="true" id="line_812b3a9306dd" d="M 10000 9936.5 L 10105 9936.5 C 10145 9936.5 10145 9745.5 10210 9745.5 L 10318 9745.5" stroke="#0F80C4" fill="none" stroke-linecap="round" stroke-width="3"></path><path part="right" sub="true" id="line_78376c5ca10c" d="M 10000 9936.5 L 10105 9936.5 C 10145 9936.5 10145 10162.5 10210 10162.5 L 10318 10162.5" stroke="#BE49C4" fill="none" stroke-linecap="round" stroke-width="3"></path></g><g class="svg-connection-con" transform="translate(0.5,0.5)"></g><g class="svg-freesums-con" transform="translate(0.5,0.5)"></g><g class="svg-freebos-con" transform="translate(0.5,0.5)"></g></g><g id="78376c5ca10c"><rect x="350" y="635.453125" rx="1px" ry="1px" width="108" height="38" style="fill: transparent; stroke:none;"></rect><g><text text-anchor="start" align="top" anchor="start" font-size="20px" font-weight="bold" fill="rgb(13, 11, 34)" style="font-size:20px;font-family:微软雅黑;color:#0D0B22;font-style:normal;text-align:left;font-weight:bold;font-style: normal;"><tspan x="364" y="661.046875"><tspan>系统前台</tspan></tspan></text></g></g><g id="0dd56e9c09ba"><rect x="534" y="474" rx="1px" ry="1px" width="72" height="37" style="fill: transparent; stroke:none;"></rect><g><text text-anchor="start" align="top" anchor="start" font-size="18px" font-weight="400" fill="rgb(13, 11, 34)" style="font-size:18px;font-family:微软雅黑;color:#0D0B22;font-style:normal;text-align:left;font-weight:400;font-style: normal;"><tspan x="543" y="499.640625"><tspan>使用者</tspan></tspan></text></g></g><g id="d4d9f99dd3bd"><rect x="682" y="477.578125" rx="1px" ry="1px" width="70" height="29" style="fill: transparent; stroke:none;"></rect><g><text text-anchor="start" align="top" anchor="start" font-size="13px" font-weight="400" fill="rgb(13, 11, 34)" style="font-size:13px;font-family:微软雅黑;color:#0D0B22;font-style:normal;text-align:left;font-weight:400;font-style: normal;"><tspan x="691" y="498.0625"><tspan>普通用户</tspan></tspan></text></g></g><g id="376d2ba88b5c"><rect x="534" y="527.640625" rx="1px" ry="1px" width="146" height="39" style="fill: transparent; stroke:none;"></rect><g><text text-anchor="start" align="top" anchor="start" font-size="18px" font-weight="400" fill="rgb(13, 11, 34)" style="font-size:18px;font-family:微软雅黑;color:#0D0B22;font-style:normal;text-align:left;font-weight:400;font-style: normal;"><tspan x="543" y="553.28125"><tspan>1. 首页数据显示</tspan></tspan></text></g></g><g id="6afb88af7ff6"><rect x="534" y="581.28125" rx="1px" ry="1px" width="164" height="39" style="fill: transparent; stroke:none;"></rect><g><text text-anchor="start" align="top" anchor="start" font-size="18px" font-weight="400" fill="rgb(13, 11, 34)" style="font-size:18px;font-family:微软雅黑;color:#0D0B22;font-style:normal;text-align:left;font-weight:400;font-style: normal;"><tspan x="543" y="606.921875"><tspan>2. 讲师列表与详情</tspan></tspan></text></g></g><g id="31c19bd2f6a5"><rect x="534" y="634.921875" rx="1px" ry="1px" width="164" height="39" style="fill: transparent; stroke:none;"></rect><g><text text-anchor="start" align="top" anchor="start" font-size="18px" font-weight="400" fill="rgb(13, 11, 34)" style="font-size:18px;font-family:微软雅黑;color:#0D0B22;font-style:normal;text-align:left;font-weight:400;font-style: normal;"><tspan x="543" y="660.5625"><tspan>3. 课程列表与详情</tspan></tspan></text></g></g><g id="68e4d8339366"><rect x="774.21875" y="638.5" rx="1px" ry="1px" width="96" height="29" style="fill: transparent; stroke:none;"></rect><g><text text-anchor="start" align="top" anchor="start" font-size="13px" font-weight="400" fill="rgb(13, 11, 34)" style="font-size:13px;font-family:微软雅黑;color:#0D0B22;font-style:normal;text-align:left;font-weight:400;font-style: normal;"><tspan x="783.21875" y="658.984375"><tspan>视频在线播放</tspan></tspan></text></g></g><g id="877300e850b0"><rect x="534" y="688.5625" rx="1px" ry="1px" width="128" height="39" style="fill: transparent; stroke:none;"></rect><g><text text-anchor="start" align="top" anchor="start" font-size="18px" font-weight="400" fill="rgb(13, 11, 34)" style="font-size:18px;font-family:微软雅黑;color:#0D0B22;font-style:normal;text-align:left;font-weight:400;font-style: normal;"><tspan x="543" y="714.203125"><tspan>4. 登录与注册</tspan></tspan></text></g></g><g id="42bdb8bb418a"><rect x="534" y="742.203125" rx="1px" ry="1px" width="150" height="39" style="fill: transparent; stroke:none;"></rect><g><text text-anchor="start" align="top" anchor="start" font-size="18px" font-weight="400" fill="rgb(13, 11, 34)" style="font-size:18px;font-family:微软雅黑;color:#0D0B22;font-style:normal;text-align:left;font-weight:400;font-style: normal;"><tspan x="543" y="767.84375"><tspan>5. 社交APP 登录</tspan></tspan></text></g></g><g id="504f5b168dba"><rect x="534" y="795.84375" rx="1px" ry="1px" width="145" height="39" style="fill: transparent; stroke:none;"></rect><g><text text-anchor="start" align="top" anchor="start" font-size="18px" font-weight="400" fill="rgb(13, 11, 34)" style="font-size:18px;font-family:微软雅黑;color:#0D0B22;font-style:normal;text-align:left;font-weight:400;font-style: normal;"><tspan x="543" y="821.484375"><tspan>6. 社交APP支付</tspan></tspan></text></g></g><g id="812b3a9306dd"><rect x="350" y="218.265625" rx="1px" ry="1px" width="108" height="36" style="fill: transparent; stroke:none;"></rect><g><text text-anchor="start" align="top" anchor="start" font-size="20px" font-weight="bold" fill="rgb(13, 11, 34)" style="font-size:20px;font-family:微软雅黑;color:#0D0B22;font-style:normal;text-align:left;font-weight:bold;font-style: normal;"><tspan x="364" y="243.859375"><tspan>系统后台</tspan></tspan></text></g></g><g id="ac25a09c6779"><rect x="534" y="30" rx="1px" ry="1px" width="72" height="37" style="fill: transparent; stroke:none;"></rect><g><text text-anchor="start" align="top" anchor="start" font-size="18px" font-weight="400" fill="rgb(13, 11, 34)" style="font-size:18px;font-family:微软雅黑;color:#0D0B22;font-style:normal;text-align:left;font-weight:400;font-style: normal;"><tspan x="543" y="55.640625"><tspan>使用者</tspan></tspan></text></g></g><g id="10e37a25f494"><rect x="682" y="33.578125" rx="1px" ry="1px" width="57" height="29" style="fill: transparent; stroke:none;"></rect><g><text text-anchor="start" align="top" anchor="start" font-size="13px" font-weight="400" fill="rgb(13, 11, 34)" style="font-size:13px;font-family:微软雅黑;color:#0D0B22;font-style:normal;text-align:left;font-weight:400;font-style: normal;"><tspan x="691" y="54.0625"><tspan>管理员</tspan></tspan></text></g></g><g id="4d70d73dad33"><rect x="534" y="83.640625" rx="1px" ry="1px" width="146" height="39" style="fill: transparent; stroke:none;"></rect><g><text text-anchor="start" align="top" anchor="start" font-size="18px" font-weight="400" fill="rgb(13, 11, 34)" style="font-size:18px;font-family:微软雅黑;color:#0D0B22;font-style:normal;text-align:left;font-weight:400;font-style: normal;"><tspan x="543" y="109.28125"><tspan>1. 讲师管理模块</tspan></tspan></text></g></g><g id="ddff091c2948"><rect x="534" y="137.28125" rx="1px" ry="1px" width="182" height="39" style="fill: transparent; stroke:none;"></rect><g><text text-anchor="start" align="top" anchor="start" font-size="18px" font-weight="400" fill="rgb(13, 11, 34)" style="font-size:18px;font-family:微软雅黑;color:#0D0B22;font-style:normal;text-align:left;font-weight:400;font-style: normal;"><tspan x="543" y="162.921875"><tspan>2. 课程分类管理模块</tspan></tspan></text></g></g><g id="5948b45f6b44"><rect x="534" y="190.921875" rx="1px" ry="1px" width="146" height="39" style="fill: transparent; stroke:none;"></rect><g><text text-anchor="start" align="top" anchor="start" font-size="18px" font-weight="400" fill="rgb(13, 11, 34)" style="font-size:18px;font-family:微软雅黑;color:#0D0B22;font-style:normal;text-align:left;font-weight:400;font-style: normal;"><tspan x="543" y="216.5625"><tspan>3. 课程管理模块</tspan></tspan></text></g></g><g id="ac861a443e32"><rect x="534" y="244.5625" rx="1px" ry="1px" width="146" height="39" style="fill: transparent; stroke:none;"></rect><g><text text-anchor="start" align="top" anchor="start" font-size="18px" font-weight="400" fill="rgb(13, 11, 34)" style="font-size:18px;font-family:微软雅黑;color:#0D0B22;font-style:normal;text-align:left;font-weight:400;font-style: normal;"><tspan x="543" y="270.203125"><tspan>4. 统计分析管理</tspan></tspan></text></g></g><g id="e2df0d6a8b0d"><rect x="534" y="298.203125" rx="1px" ry="1px" width="110" height="39" style="fill: transparent; stroke:none;"></rect><g><text text-anchor="start" align="top" anchor="start" font-size="18px" font-weight="400" fill="rgb(13, 11, 34)" style="font-size:18px;font-family:微软雅黑;color:#0D0B22;font-style:normal;text-align:left;font-weight:400;font-style: normal;"><tspan x="543" y="323.84375"><tspan>5. 订单管理</tspan></tspan></text></g></g><g id="d12b38b108ad"><rect x="534" y="351.84375" rx="1px" ry="1px" width="140" height="39" style="fill: transparent; stroke:none;"></rect><g><text text-anchor="start" align="top" anchor="start" font-size="18px" font-weight="400" fill="rgb(13, 11, 34)" style="font-size:18px;font-family:微软雅黑;color:#0D0B22;font-style:normal;text-align:left;font-weight:400;font-style: normal;"><tspan x="543" y="377.484375"><tspan>6. banner 管理</tspan></tspan></text></g></g><g id="354d288394be"><rect x="534" y="405.484375" rx="1px" ry="1px" width="110" height="39" style="fill: transparent; stroke:none;"></rect><g><text text-anchor="start" align="top" anchor="start" font-size="18px" font-weight="400" fill="rgb(13, 11, 34)" style="font-size:18px;font-family:微软雅黑;color:#0D0B22;font-style:normal;text-align:left;font-weight:400;font-style: normal;"><tspan x="543" y="431.125"><tspan>7. 权限管理</tspan></tspan></text></g></g><g transform="translate(350, 474)" id="sdjakdjak0"><g id="subline_78376c5ca10c" transform="translate(0.5,-0.5)"><path id="line_0dd56e9c09ba" d="M 108 199 L 108 199 M 108 199 C 154 199 146 38 184 38 L 256 38" p="78376c5ca10c" stroke="#BE49C4" fill="none" stroke-linecap="round" stroke-width="3"></path><path id="line_d4d9f99dd3bd" d="M 256 38 L 256 38 M 256 38 C 302 38 294 34 332 34 L 402 34" p="0dd56e9c09ba" stroke="#BE49C4" fill="none" stroke-linecap="round" stroke-width="3"></path><path id="line_376d2ba88b5c" d="M 108 199 L 108 199 M 108 199 C 154 199 146 92 184 92 L 330 92" p="78376c5ca10c" stroke="#BE49C4" fill="none" stroke-linecap="round" stroke-width="3"></path><path id="line_6afb88af7ff6" d="M 108 199 L 108 199 M 108 199 C 154 199 146 145 184 145 L 348 145" p="78376c5ca10c" stroke="#BE49C4" fill="none" stroke-linecap="round" stroke-width="3"></path><path id="line_31c19bd2f6a5" d="M 108 199 L 108 199 M 108 199 C 154 199 146 199 184 199 L 348 199" p="78376c5ca10c" stroke="#BE49C4" fill="none" stroke-linecap="round" stroke-width="3"></path><path id="line_68e4d8339366" d="M 348 199 L 348 199 M 348 199 C 394.21875 199 386.109375 195 424.21875 195 L 520.21875 195" p="31c19bd2f6a5" stroke="#BE49C4" fill="none" stroke-linecap="round" stroke-width="3"></path><path id="line_877300e850b0" d="M 108 199 L 108 199 M 108 199 C 154 199 146 253 184 253 L 312 253" p="78376c5ca10c" stroke="#BE49C4" fill="none" stroke-linecap="round" stroke-width="3"></path><path id="line_42bdb8bb418a" d="M 108 199 L 108 199 M 108 199 C 154 199 146 306 184 306 L 334 306" p="78376c5ca10c" stroke="#BE49C4" fill="none" stroke-linecap="round" stroke-width="3"></path><path id="line_504f5b168dba" d="M 108 199 L 108 199 M 108 199 C 154 199 146 360 184 360 L 329 360" p="78376c5ca10c" stroke="#BE49C4" fill="none" stroke-linecap="round" stroke-width="3"></path></g><g transform="translate(0.5,0)"></g><g class="svg-summary-con" transform="translate(0.5,0.5)"></g><g class="svg-boundary-con" transform="translate(0.5,0.5)"></g></g><g transform="translate(350, 30)" id="sdjakdjak1"><g id="subline_812b3a9306dd" transform="translate(0.5,-0.5)"><path id="line_ac25a09c6779" d="M 108 226 L 108 226 M 108 226 C 154 226 146 38 184 38 L 256 38" p="812b3a9306dd" stroke="#0F80C4" fill="none" stroke-linecap="round" stroke-width="3"></path><path id="line_10e37a25f494" d="M 256 38 L 256 38 M 256 38 C 302 38 294 34 332 34 L 389 34" p="ac25a09c6779" stroke="#0F80C4" fill="none" stroke-linecap="round" stroke-width="3"></path><path id="line_4d70d73dad33" d="M 108 226 L 108 226 M 108 226 C 154 226 146 92 184 92 L 330 92" p="812b3a9306dd" stroke="#0F80C4" fill="none" stroke-linecap="round" stroke-width="3"></path><path id="line_ddff091c2948" d="M 108 226 L 108 226 M 108 226 C 154 226 146 145 184 145 L 366 145" p="812b3a9306dd" stroke="#0F80C4" fill="none" stroke-linecap="round" stroke-width="3"></path><path id="line_5948b45f6b44" d="M 108 226 L 108 226 M 108 226 C 154 226 146 199 184 199 L 330 199" p="812b3a9306dd" stroke="#0F80C4" fill="none" stroke-linecap="round" stroke-width="3"></path><path id="line_ac861a443e32" d="M 108 226 L 108 226 M 108 226 C 154 226 146 253 184 253 L 330 253" p="812b3a9306dd" stroke="#0F80C4" fill="none" stroke-linecap="round" stroke-width="3"></path><path id="line_e2df0d6a8b0d" d="M 108 226 L 108 226 M 108 226 C 154 226 146 306 184 306 L 294 306" p="812b3a9306dd" stroke="#0F80C4" fill="none" stroke-linecap="round" stroke-width="3"></path><path id="line_d12b38b108ad" d="M 108 226 L 108 226 M 108 226 C 154 226 146 360 184 360 L 324 360" p="812b3a9306dd" stroke="#0F80C4" fill="none" stroke-linecap="round" stroke-width="3"></path><path id="line_354d288394be" d="M 108 226 L 108 226 M 108 226 C 154 226 146 413 184 413 L 294 413" p="812b3a9306dd" stroke="#0F80C4" fill="none" stroke-linecap="round" stroke-width="3"></path></g><g transform="translate(0.5,0)"></g><g class="svg-summary-con" transform="translate(0.5,0.5)"></g><g class="svg-boundary-con" transform="translate(0.5,0.5)"></g></g><g transform="translate(30, 412)" id="sdjakdjak2"><g id="subline_root" transform="translate(0.5,-0.5)"></g><g transform="translate(0.5,0)"></g><g class="svg-summary-con" transform="translate(0.5,0.5)"></g><g class="svg-boundary-con" transform="translate(0.5,0.5)"></g></g><g id="root"><rect x="30" y="412" rx="7px" ry="7px" width="220" height="67" style="fill: #E0E0E0; stroke:none;"></rect><g><text text-anchor="start" align="top" anchor="start" font-size="24px" font-weight="bold" fill="rgb(13, 71, 161)" style="font-size:24px;font-family:微软雅黑;color:#0D47A1;font-style:normal;text-align:left;font-weight:bold;background-color:#E0E0E0;font-style: normal;"><tspan x="68" y="454.015625"><tspan>系统模块设计</tspan></tspan></text></g></g></svg>
